<svg xmlns="http://www.w3.org/2000/svg" width="1600" height="900" viewBox="0 0 1600 900">
  <rect width="1600" height="900" fill="#ffffff"/>
  <g fill="none" stroke="#111111" stroke-width="6" stroke-linecap="round" stroke-linejoin="round">
    <rect x="120" y="330" width="250" height="150" rx="24"/>
    <path d="M170 330 L170 270 L322 286 L370 330"/>
    <rect x="612" y="214" width="360" height="360" rx="36"/>
    <circle cx="792" cy="394" r="92"/>
    <path d="M700 302 L736 266"/>
    <path d="M888 302 L850 264"/>
    <path d="M700 486 L736 522"/>
    <path d="M888 486 L850 522"/>
    <rect x="1174" y="340" width="256" height="130" rx="22"/>
  </g>
  <g font-family="PingFang SC, Hiragino Sans GB, Microsoft YaHei, sans-serif" fill="#111111">
    <text x="245" y="420" font-size="38" text-anchor="middle">request</text>
    <text x="792" y="405" font-size="42" text-anchor="middle" font-weight="600">模型</text>
    <text x="1302" y="417" font-size="38" text-anchor="middle">response</text>
  </g>
  <g fill="none" stroke="#f28c28" stroke-width="8" stroke-linecap="round" stroke-linejoin="round">
    <path d="M370 406 C472 406, 536 400, 612 394"/>
    <path d="M572 378 L614 394 L574 410"/>
    <path d="M972 394 C1050 394, 1098 398, 1174 404"/>
    <path d="M1136 388 L1176 404 L1136 420"/>
  </g>
  <g fill="none" stroke="#111111" stroke-width="5" stroke-linecap="round" stroke-linejoin="round">
    <rect x="520" y="630" width="120" height="58" rx="16"/>
    <rect x="662" y="630" width="120" height="58" rx="16"/>
    <rect x="804" y="630" width="120" height="58" rx="16"/>
    <rect x="946" y="630" width="150" height="58" rx="16"/>
  </g>
  <g font-family="Kaiti SC, STKaiti, serif" font-size="26" fill="#111111">
    <text x="580" y="668" text-anchor="middle">endpoint</text>
    <text x="722" y="668" text-anchor="middle">model</text>
    <text x="864" y="668" text-anchor="middle">messages</text>
    <text x="1021" y="668" text-anchor="middle">temperature</text>
  </g>
  <g transform="translate(468 614)">
    <path d="M0 64 C-8 18 22 -8 61 -5 C101 -1 120 29 113 71 C108 109 80 133 43 130 C11 126 -8 105 0 64 Z" fill="#111111"/>
    <circle cx="47" cy="48" r="5" fill="#ffffff"/>
    <circle cx="70" cy="48" r="5" fill="#ffffff"/>
    <path d="M33 128 L27 168" stroke="#111111" stroke-width="6" stroke-linecap="round"/>
    <path d="M82 128 L92 168" stroke="#111111" stroke-width="6" stroke-linecap="round"/>
    <path d="M112 74 L156 52" stroke="#111111" stroke-width="6" stroke-linecap="round"/>
  </g>
  <g font-family="Kaiti SC, STKaiti, serif" font-size="32">
    <text x="1140" y="182" fill="#e65050">其实就是一条请求</text>
    <text x="1148" y="224" fill="#4a89dc">只是字段别看花了</text>
  </g>
</svg>
