<svg xmlns="http://www.w3.org/2000/svg" width="1600" height="900" viewBox="0 0 1600 900"><rect width="1600" height="900" fill="#fff"/><g font-family="Kaiti SC, STKaiti, serif" font-size="34"><text x="164" y="152" fill="#e65050">权限不是补丁</text><text x="1144" y="152" fill="#4a89dc">而是检索入口条件</text><text x="642" y="772" fill="#f28c28">能检索、会回答，不等于该给谁都回答</text></g><g fill="none" stroke="#111" stroke-width="6" stroke-linecap="round" stroke-linejoin="round"><rect x="154" y="298" width="248" height="86" rx="16"/><rect x="506" y="298" width="248" height="86" rx="16"/><rect x="858" y="298" width="248" height="86" rx="16"/><rect x="1210" y="298" width="220" height="86" rx="16"/></g><g font-family="PingFang SC, Hiragino Sans GB, Microsoft YaHei, sans-serif" fill="#111" font-size="28"><text x="278" y="354" text-anchor="middle">用户身份</text><text x="630" y="354" text-anchor="middle">权限过滤</text><text x="982" y="354" text-anchor="middle">可见候选</text><text x="1320" y="354" text-anchor="middle">带引用回答</text></g><g fill="none" stroke="#f28c28" stroke-width="8" stroke-linecap="round" stroke-linejoin="round"><path d="M402 342 H506"/><path d="M462 322 L504 342 L462 362"/><path d="M754 342 H858"/><path d="M814 322 L856 342 L814 362"/><path d="M1106 342 H1210"/><path d="M1166 322 L1208 342 L1166 362"/></g><g fill="none" stroke="#e65050" stroke-width="8" stroke-linecap="round" stroke-linejoin="round"><path d="M626 470 C708 494, 806 492, 900 474"/><path d="M860 450 L904 474 L856 486"/></g><g font-family="Kaiti SC, STKaiti, serif" font-size="30"><text x="654" y="538" fill="#e65050">别先全库搜，再临时删</text></g><g transform="translate(1012 498)"><path d="M0 68 C-8 23 20 -8 62 -4 C104 0 123 34 116 77 C110 117 80 140 42 136 C9 132 -8 111 0 68 Z" fill="#111"/><circle cx="49" cy="52" r="5" fill="#fff"/><circle cx="74" cy="52" r="5" fill="#fff"/><path d="M34 134 L28 176" stroke="#111" stroke-width="6" stroke-linecap="round"/><path d="M84 134 L96 174" stroke="#111" stroke-width="6" stroke-linecap="round"/><path d="M110 78 L168 42" stroke="#111" stroke-width="6" stroke-linecap="round"/></g></svg>
