<svg xmlns="http://www.w3.org/2000/svg" width="1600" height="900" viewBox="0 0 1600 900"><rect width="1600" height="900" fill="#fff"/><g font-family="Kaiti SC, STKaiti, serif" font-size="34"><text x="182" y="152" fill="#e65050">别靠感觉调</text><text x="1114" y="152" fill="#4a89dc">要让系统会体检</text><text x="640" y="770" fill="#f28c28">更新 → 评估 → 观察有没有退化</text></g><g fill="none" stroke="#111" stroke-width="6" stroke-linecap="round" stroke-linejoin="round"><rect x="184" y="286" width="246" height="86" rx="16"/><rect x="536" y="286" width="246" height="86" rx="16"/><rect x="888" y="286" width="246" height="86" rx="16"/><rect x="1240" y="286" width="194" height="86" rx="16"/></g><g font-family="PingFang SC, Hiragino Sans GB, Microsoft YaHei, sans-serif" fill="#111" font-size="28"><text x="307" y="342" text-anchor="middle">文档更新</text><text x="659" y="342" text-anchor="middle">增量同步</text><text x="1011" y="342" text-anchor="middle">评估集</text><text x="1337" y="342" text-anchor="middle">告警</text></g><g fill="none" stroke="#f28c28" stroke-width="8" stroke-linecap="round" stroke-linejoin="round"><path d="M430 330 H536"/><path d="M492 310 L532 330 L492 350"/><path d="M782 330 H888"/><path d="M844 310 L884 330 L844 350"/><path d="M1134 330 H1240"/><path d="M1196 310 L1236 330 L1196 350"/></g><g transform="translate(736 500)"><path d="M0 68 C-8 23 20 -8 62 -4 C104 0 123 34 116 77 C110 117 80 140 42 136 C9 132 -8 111 0 68 Z" fill="#111"/><circle cx="49" cy="52" r="5" fill="#fff"/><circle cx="74" cy="52" r="5" fill="#fff"/><path d="M34 134 L28 176" stroke="#111" stroke-width="6" stroke-linecap="round"/><path d="M84 134 L96 174" stroke="#111" stroke-width="6" stroke-linecap="round"/><path d="M110 78 L170 54" stroke="#111" stroke-width="6" stroke-linecap="round"/></g><g font-family="Kaiti SC, STKaiti, serif" font-size="30"><text x="544" y="620" fill="#4a89dc">不是更忙</text><text x="682" y="620" fill="#4a89dc">而是更可控</text></g></svg>
